<svg id="Слой_1" data-name="Слой 1" xmlns="http://www.w3.org/2000/svg" xmlns:xlink="http://www.w3.org/1999/xlink" viewBox="0 0 1976.64 1954.58"><defs><style>.cls-1{fill:url(#Безымянный_градиент_10);}.cls-2{fill:url(#Безымянный_градиент_5);}.cls-3{fill:url(#Безымянный_градиент_22);}.cls-4{fill:url(#Безымянный_градиент_14);}</style><linearGradient id="Безымянный_градиент_10" x1="625.68" y1="128.59" x2="1546.35" y2="1705.7" gradientUnits="userSpaceOnUse"><stop offset="0" stop-color="#00b8e0"/><stop offset="1" stop-color="#004b80"/></linearGradient><linearGradient id="Безымянный_градиент_5" x1="422.42" y1="426.91" x2="2149.01" y2="1270.38" gradientUnits="userSpaceOnUse"><stop offset="0" stop-color="#007f5c"/><stop offset="1" stop-color="#00e978"/></linearGradient><linearGradient id="Безымянный_градиент_22" x1="1214.52" y1="1203.94" x2="1395.92" y2="2014.26" gradientUnits="userSpaceOnUse"><stop offset="0" stop-color="#be2e5a"/><stop offset="0.28" stop-color="#c12f56"/><stop offset="0.53" stop-color="#c9314b"/><stop offset="0.77" stop-color="#d73539"/><stop offset="1" stop-color="#ea3a20"/></linearGradient><linearGradient id="Безымянный_градиент_14" x1="405.94" y1="971.72" x2="1621.4" y2="971.98" gradientUnits="userSpaceOnUse"><stop offset="0" stop-color="#ca4000"/><stop offset="0.01" stop-color="#cb4300"/><stop offset="0.23" stop-color="#da6b00"/><stop offset="0.43" stop-color="#e68a00"/><stop offset="0.64" stop-color="#efa000"/><stop offset="0.83" stop-color="#f4ad00"/><stop offset="1" stop-color="#f6b200"/></linearGradient></defs><path class="cls-1" d="M26,892.43s590.64-630,1358.64-485c0,0,279,8.3,325.55,552.69,0,0,27.74,736.38-255.2,924l42.6,51.39,86.36-73.08,239.18-488.31L1863,922.33V550.28l-93-252.46-265.75-69.76s-325.54-23.26-338.83-23.26-421.88,89.69-421.88,89.69L398.09,493.81,145.63,693.12Z" transform="translate(-11.68 -22.71)"/><path class="cls-2" d="M69.23,801.63S399.2,355.39,1216.38,269c0,0,704.23-154.29,582.43,754.43,0,0-84.32,813.53-354.47,863.45,0,0,317.65,153.22,474.53-666.11,10-52.48,18.41-105.26,30.53-157.3,45.21-194.1,123.64-763.69-257-976.18-79.07-44.14-169.39-64-259.94-64.42-67-.31-162.35-2.59-272.1,22.31-322.7,73.22-591.52,242.2-834.26,430.32L154.24,618.09Z" transform="translate(-11.68 -22.71)"/><path class="cls-3" d="M1686.81,1806.28s-165.93,277-454.93,125.89c0,0-369.47-127.89-163.18-546.86,15.35-31.19,25.66-64.82,26.18-99.58,1.17-77.6-31.22-193.28-239.39-178.25l334.86-185.15,274.06,118.11-.63,215.5s-145.16,207.9-131.35,443.48c3.74,63.63,32,125.22,83.51,162.84C1474.1,1904.76,1567.14,1926.87,1686.81,1806.28Z" transform="translate(-11.68 -22.71)"/><path class="cls-4" d="M154.24,618.09S-105.17,870.4,75.87,1069.93c0,0,76.4,133.09,935.1,18.49,0,0,469.65-44.16,412.07,237.09,0,0,87.06-122.34,112.14-239.08,34.32-159.73-67.35-314.64-225.44-355.86-137.4-35.83-368.66-45-744.45,61.1,0,0-128.52,36.87-295.53,52.08C158.22,853.91,96.32,776.42,133.63,670.81,139.25,654.91,146,637.4,154.24,618.09Z" transform="translate(-11.68 -22.71)"/></svg>