<svg width="25" height="24" viewBox="0 0 25 24" fill="none" xmlns="http://www.w3.org/2000/svg">
<path d="M9.54 21.54C10.5 21.83 11.47 22 12.5 22C15.1522 22 17.6957 20.9464 19.5711 19.0711C21.4464 17.1957 22.5 14.6522 22.5 12C22.5 10.6868 22.2413 9.38642 21.7388 8.17317C21.2362 6.95991 20.4997 5.85752 19.5711 4.92893C18.6425 4.00035 17.5401 3.26375 16.3268 2.7612C15.1136 2.25866 13.8132 2 12.5 2C11.1868 2 9.88642 2.25866 8.67317 2.7612C7.45991 3.26375 6.35752 4.00035 5.42893 4.92893C3.55357 6.8043 2.5 9.34784 2.5 12C2.5 16.25 5.17 19.9 8.94 21.34C8.85 20.56 8.76 19.27 8.94 18.38L10.09 13.44C10.09 13.44 9.8 12.86 9.8 11.94C9.8 10.56 10.66 9.53 11.64 9.53C12.5 9.53 12.9 10.16 12.9 10.97C12.9 11.83 12.33 13.06 12.04 14.24C11.87 15.22 12.56 16.08 13.56 16.08C15.34 16.08 16.72 14.18 16.72 11.5C16.72 9.1 15 7.46 12.53 7.46C9.71 7.46 8.05 9.56 8.05 11.77C8.05 12.63 8.33 13.5 8.79 14.07C8.88 14.13 8.88 14.21 8.85 14.36L8.56 15.45C8.56 15.62 8.45 15.68 8.28 15.56C7 15 6.26 13.18 6.26 11.71C6.26 8.55 8.5 5.68 12.82 5.68C16.26 5.68 18.94 8.15 18.94 11.43C18.94 14.87 16.81 17.63 13.76 17.63C12.79 17.63 11.84 17.11 11.5 16.5L10.83 18.87C10.6 19.73 9.97 20.88 9.54 21.57V21.54Z" fill="#00B274"/>
</svg>
